<?xml version="1.0" standalone="no"?>
<!DOCTYPE svg PUBLIC "-//W3C//DTD SVG 20010904//EN"
 "http://www.w3.org/TR/2001/REC-SVG-20010904/DTD/svg10.dtd">
<svg version="1.0" xmlns="http://www.w3.org/2000/svg"
 width="225.000000pt" height="225.000000pt" viewBox="0 0 225.000000 225.000000"
 preserveAspectRatio="xMidYMid meet">

<g transform="translate(0.000000,225.000000) scale(0.100000,-0.100000)"
fill="#000000" stroke="none">
<path d="M0 1125 l0 -1125 1125 0 1125 0 0 1125 0 1125 -1125 0 -1125 0 0
-1125z m1133 984 c23 -37 -25 -68 -52 -35 -9 11 -10 20 -1 36 13 24 38 23 53
-1z m979 -33 c15 -21 8 -55 -12 -61 -35 -11 -60 3 -60 35 0 44 48 61 72 26z
m-1862 -1 c15 -18 10 -45 -12 -59 -33 -20 -69 20 -54 60 7 18 50 18 66 -1z
m1637 -229 c-4 -9 -12 -16 -19 -16 -10 0 -9 3 1 9 9 6 11 16 7 27 -6 15 -4 16
5 7 6 -6 9 -19 6 -27z m-1688 -260 c9 -11 10 -20 1 -35 -12 -24 -15 -25 -41
-11 -22 12 -25 30 -7 48 16 16 33 15 47 -2z m956 -143 c3 -16 18 -38 33 -50
22 -17 25 -24 15 -34 -19 -20 -16 -36 14 -64 23 -20 26 -28 17 -43 -7 -10 -8
-26 -3 -40 8 -21 14 -22 114 -22 113 0 166 -14 184 -48 14 -27 -10 -59 -57
-72 -20 -5 -81 -10 -135 -10 -92 0 -98 -1 -106 -22 -5 -14 -4 -30 3 -40 9 -15
6 -23 -17 -43 -27 -26 -36 -55 -17 -55 19 0 10 -30 -14 -46 -14 -8 -28 -29
-31 -45 -6 -27 -10 -29 -51 -29 -24 0 -44 3 -44 8 1 4 9 68 20 142 10 74 18
135 17 136 -1 1 -59 5 -128 9 l-125 7 -27 -61 c-24 -55 -29 -61 -56 -61 -16 0
-32 4 -36 10 -3 5 4 42 16 83 l21 73 -21 71 c-28 94 -28 95 16 91 35 -3 38 -7
59 -58 l22 -55 129 4 c70 2 129 4 129 5 2 1 -23 196 -32 249 l-6 37 45 0 c41
0 45 -3 52 -27z m-950 -653 c-10 -11 -20 -18 -23 -15 -7 6 18 35 31 35 5 0 2
-9 -8 -20z m53 -25 c-3 -3 -9 2 -12 12 -6 14 -5 15 5 6 7 -7 10 -15 7 -18z
m1859 -141 c9 -24 -6 -61 -28 -67 -13 -3 -28 2 -40 14 -24 24 -24 34 0 58 21
21 59 18 68 -5z m-1079 -282 c4 -28 -24 -40 -45 -19 -14 13 -14 19 -3 32 18
22 44 15 48 -13z m-743 -61 c9 -31 -5 -52 -33 -49 -33 4 -50 31 -33 52 18 22
58 20 66 -3z m1610 -91 c0 -12 -9 -29 -20 -36 -18 -12 -24 -11 -43 2 -29 20
-29 62 1 73 29 12 62 -9 62 -39z"/>
<path d="M1097 2103 c-12 -11 -8 -23 8 -23 8 0 15 7 15 15 0 16 -12 20 -23 8z"/>
<path d="M2057 2056 c-7 -18 11 -36 29 -29 8 3 14 14 14 24 0 22 -35 26 -43 5z"/>
<path d="M206 2064 c-16 -15 -16 -18 -2 -33 15 -14 18 -14 33 2 16 15 16 18 2
33 -15 14 -18 14 -33 -2z"/>
<path d="M160 1572 c0 -10 3 -22 7 -25 10 -11 32 13 26 29 -8 20 -33 17 -33
-4z"/>
<path d="M1101 1318 c10 -73 19 -134 19 -135 0 -2 23 -3 51 -3 58 0 59 -18 -3
158 -35 97 -43 112 -62 112 l-23 0 18 -132z"/>
<path d="M748 1265 c-3 -3 3 -31 13 -62 23 -68 23 -88 4 -143 -34 -96 0 -114
37 -19 l23 61 165 -6 c91 -3 233 -9 315 -12 83 -4 147 -3 143 1 -4 5 -3 14 3
21 6 8 8 21 4 31 -5 10 -7 22 -6 26 2 9 -302 3 -517 -9 l-103 -6 -26 61 c-24
55 -40 71 -55 56z"/>
<path d="M1475 1140 c4 -12 1 -27 -5 -35 -15 -18 -6 -19 21 -5 25 14 24 36 -2
51 -19 10 -20 9 -14 -11z"/>
<path d="M1116 1033 c-4 -21 -12 -82 -20 -135 l-13 -98 22 0 c15 0 26 9 33 28
14 35 82 233 82 238 0 2 -22 4 -49 4 -49 0 -49 0 -55 -37z"/>
<path d="M2052 617 c-16 -19 8 -50 34 -45 28 5 26 52 -2 56 -11 2 -26 -3 -32
-11z"/>
<path d="M996 352 c-8 -13 11 -35 23 -28 16 10 14 36 -3 36 -8 0 -17 -4 -20
-8z"/>
<path d="M242 268 c7 -19 38 -22 38 -4 0 10 -9 16 -21 16 -12 0 -19 -5 -17
-12z"/>
<path d="M1840 205 c-11 -13 -11 -19 3 -32 21 -21 49 -9 45 19 -4 28 -30 35
-48 13z"/>
</g>
</svg>
