<?xml version="1.0" encoding="iso-8859-1"?>
<!-- Uploaded to: SVG Repo, www.svgrepo.com, Generator: SVG Repo Mixer Tools -->
<svg height="800px" width="800px" version="1.1" id="Layer_1" xmlns="http://www.w3.org/2000/svg" xmlns:xlink="http://www.w3.org/1999/xlink" 
	 viewBox="0 0 512 512" xml:space="preserve">
<path style="fill:#00D8E0;" d="M256,78.051c-117.678,0-213.415,97.335-213.415,216.974S138.322,512,256,512
	s213.415-97.335,213.415-216.974S373.678,78.051,256,78.051z"/>
<path style="fill:#B9F7F9;" d="M256,78.051c-117.678,0-213.415,97.335-213.415,216.974S138.322,512,256,512V78.051z"/>
<path style="fill:#006C71;" d="M378.653,217.757l79.074,6.437c-16.002-46.972-47.453-86.668-88.148-112.781l-17.848,69.761
	c-2.146,8.386,0.048,17.289,5.843,23.718l3.97,4.405C365.96,214.196,372.08,217.222,378.653,217.757z"/>
<path style="fill:#00A2A9;" d="M105.365,309.385l-53.441-77.882c-6.065,20.1-9.339,41.429-9.339,63.523
	c0,79.772,42.57,149.615,105.819,187.313l17.303-81.752c6.048-28.577-8.469-57.539-34.985-69.793l0,0
	C120.498,326.069,111.738,318.672,105.365,309.385z"/>
<path style="fill:#006C71;" d="M374.162,261.534l-49.994,13.263c-9.348,2.48-16.921,9.326-20.328,18.377l-13.984,37.153
	c-2.199,5.844-2.516,12.23-0.903,18.263l6.813,25.494c3.025,11.319,12.378,19.83,23.931,21.777l0,0
	c15.937,2.685,26.86,17.542,24.67,33.553l-9.175,67.089c78.581-32.04,134.222-110.272,134.222-201.477
	c0-5.878-0.24-11.7-0.693-17.461l-80.938-16.432C383.273,260.216,378.611,260.353,374.162,261.534z"/>
<path style="fill:#555559;" d="M226.729,254.48h-46.833c-11.494,0-20.812-9.319-20.812-20.812s9.319-20.812,20.812-20.812h46.833
	c11.494,0,20.812,9.319,20.812,20.812S238.223,254.48,226.729,254.48z"/>
<path style="fill:#AEADB3;" d="M203.313,254.48h-23.417c-11.494,0-20.812-9.319-20.812-20.812s9.318-20.812,20.812-20.812h23.417
	V254.48z"/>
<path style="fill:#D83249;" d="M264.609,24.939C248.173,8.853,226.306,0,203.017,0c-0.053,0-0.109,0-0.163,0c0,0,0,0-0.001,0
	c-48.213,0.087-87.369,39.381-87.284,87.596c0.034,19.633,12.315,48.421,37.54,88.006c17.553,27.545,34.836,49.972,35.564,50.913
	c3.485,4.512,8.864,7.153,14.563,7.153c0.026,0,0.051,0,0.077,0c5.727-0.024,11.118-2.713,14.581-7.274
	c0.724-0.952,17.916-23.653,35.363-51.474c25.061-39.961,37.226-68.919,37.192-88.527C290.406,63.029,281.231,41.203,264.609,24.939
	z"/>
<path style="fill:#FF4F59;" d="M203.017,0c-0.053,0-0.109,0-0.163,0c0,0,0,0-0.001,0c-48.213,0.087-87.369,39.381-87.284,87.596
	c0.034,19.633,12.315,48.421,37.54,88.006c17.553,27.545,34.836,49.972,35.564,50.913c3.485,4.512,8.864,7.153,14.563,7.153
	c0.026,0,0.051,0,0.077,0C203.313,233.669,202.853,0,203.017,0z"/>
<circle style="fill:#FAD52A;" cx="203.026" cy="95.292" r="37.708"/>
<path style="fill:#FFEA5E;" d="M203.091,132.995c-20.825,0.037-37.736-16.814-37.774-37.64
	c-0.037-20.825,16.814-37.736,37.64-37.774L203.091,132.995z"/>
</svg>